<mxfile host="app.diagrams.net" agent="Mozilla/5.0 (Windows NT 10.0; Win64; x64) AppleWebKit/537.36 (KHTML, like Gecko) Chrome/131.0.0.0 Safari/537.36 Edg/131.0.0.0" version="25.0.3">
  <diagram name="Σελίδα-1" id="tmDfS0Vwb00B8AfMWYN8">
    <mxGraphModel dx="1115" dy="462" grid="1" gridSize="10" guides="1" tooltips="1" connect="1" arrows="1" fold="1" page="1" pageScale="1" pageWidth="827" pageHeight="1169" math="0" shadow="0">
      <root>
        <mxCell id="0" />
        <mxCell id="1" parent="0" />
        <mxCell id="bwbJUTtw4qYsXUZASPe6-28" value="" style="endArrow=classic;html=1;rounded=0;entryX=0;entryY=0.5;entryDx=0;entryDy=0;" edge="1" parent="1">
          <mxGeometry width="50" height="50" relative="1" as="geometry">
            <mxPoint x="10" y="321.57" as="sourcePoint" />
            <mxPoint x="90" y="321.57" as="targetPoint" />
          </mxGeometry>
        </mxCell>
        <mxCell id="bwbJUTtw4qYsXUZASPe6-30" value="" style="group" vertex="1" connectable="0" parent="1">
          <mxGeometry x="30" y="285" width="260" height="97" as="geometry" />
        </mxCell>
        <mxCell id="bwbJUTtw4qYsXUZASPe6-17" value="&lt;font face=&quot;Times New Roman&quot; style=&quot;font-size: 18px;&quot;&gt;&lt;i&gt;H(s)&lt;/i&gt;&lt;/font&gt;" style="rounded=0;whiteSpace=wrap;html=1;fillColor=#9999FF;" vertex="1" parent="bwbJUTtw4qYsXUZASPe6-30">
          <mxGeometry x="120" y="17" width="80" height="40" as="geometry" />
        </mxCell>
        <mxCell id="bwbJUTtw4qYsXUZASPe6-19" value="" style="ellipse;whiteSpace=wrap;html=1;fillColor=#9999FF;" vertex="1" parent="bwbJUTtw4qYsXUZASPe6-30">
          <mxGeometry x="60" y="27" width="20" height="20" as="geometry" />
        </mxCell>
        <mxCell id="bwbJUTtw4qYsXUZASPe6-20" value="" style="endArrow=classic;html=1;rounded=0;exitX=1;exitY=0.5;exitDx=0;exitDy=0;entryX=0;entryY=0.5;entryDx=0;entryDy=0;" edge="1" parent="bwbJUTtw4qYsXUZASPe6-30" source="bwbJUTtw4qYsXUZASPe6-19">
          <mxGeometry width="50" height="50" relative="1" as="geometry">
            <mxPoint x="380" y="227" as="sourcePoint" />
            <mxPoint x="120" y="37" as="targetPoint" />
          </mxGeometry>
        </mxCell>
        <mxCell id="bwbJUTtw4qYsXUZASPe6-21" value="" style="endArrow=classic;html=1;rounded=0;exitX=1;exitY=0.5;exitDx=0;exitDy=0;" edge="1" parent="bwbJUTtw4qYsXUZASPe6-30" source="bwbJUTtw4qYsXUZASPe6-17">
          <mxGeometry width="50" height="50" relative="1" as="geometry">
            <mxPoint x="380" y="227" as="sourcePoint" />
            <mxPoint x="260" y="37" as="targetPoint" />
          </mxGeometry>
        </mxCell>
        <mxCell id="bwbJUTtw4qYsXUZASPe6-22" value="" style="edgeStyle=elbowEdgeStyle;elbow=vertical;endArrow=classic;html=1;curved=0;rounded=0;endSize=8;startSize=8;entryX=0.5;entryY=1;entryDx=0;entryDy=0;" edge="1" parent="bwbJUTtw4qYsXUZASPe6-30" target="bwbJUTtw4qYsXUZASPe6-19">
          <mxGeometry width="50" height="50" relative="1" as="geometry">
            <mxPoint x="230" y="35" as="sourcePoint" />
            <mxPoint x="430" y="177" as="targetPoint" />
            <Array as="points">
              <mxPoint x="240" y="97" />
            </Array>
          </mxGeometry>
        </mxCell>
        <mxCell id="bwbJUTtw4qYsXUZASPe6-23" value="&lt;font style=&quot;font-size: 18px;&quot; face=&quot;Times New Roman&quot;&gt;y&lt;/font&gt;" style="text;html=1;align=center;verticalAlign=middle;resizable=0;points=[];autosize=1;strokeColor=none;fillColor=none;" vertex="1" parent="bwbJUTtw4qYsXUZASPe6-30">
          <mxGeometry x="220" width="30" height="40" as="geometry" />
        </mxCell>
        <mxCell id="bwbJUTtw4qYsXUZASPe6-24" value="&lt;font style=&quot;font-size: 18px;&quot; face=&quot;Times New Roman&quot;&gt;r&lt;/font&gt;" style="text;html=1;align=center;verticalAlign=middle;resizable=0;points=[];autosize=1;strokeColor=none;fillColor=none;" vertex="1" parent="bwbJUTtw4qYsXUZASPe6-30">
          <mxGeometry y="5" width="30" height="40" as="geometry" />
        </mxCell>
        <mxCell id="bwbJUTtw4qYsXUZASPe6-25" value="&lt;font style=&quot;font-size: 18px;&quot;&gt;+&lt;/font&gt;" style="text;html=1;align=center;verticalAlign=middle;resizable=0;points=[];autosize=1;strokeColor=none;fillColor=none;" vertex="1" parent="bwbJUTtw4qYsXUZASPe6-30">
          <mxGeometry x="30" y="7" width="30" height="40" as="geometry" />
        </mxCell>
        <mxCell id="bwbJUTtw4qYsXUZASPe6-26" value="&lt;font style=&quot;font-size: 18px;&quot;&gt;-&lt;/font&gt;" style="text;html=1;align=center;verticalAlign=middle;resizable=0;points=[];autosize=1;strokeColor=none;fillColor=none;" vertex="1" parent="bwbJUTtw4qYsXUZASPe6-30">
          <mxGeometry x="45" y="40" width="30" height="40" as="geometry" />
        </mxCell>
      </root>
    </mxGraphModel>
  </diagram>
</mxfile>
